<svg width="355" height="362" viewBox="0 0 355 362" fill="none" xmlns="http://www.w3.org/2000/svg">
<g clip-path="url(#clip0_160_515)">
<path d="M158.486 347.05C250.987 376.915 350.184 326.14 380.05 233.64C409.915 141.14 359.14 41.9424 266.64 12.0766C174.139 -17.7891 74.9424 32.9862 45.0767 125.486C15.2109 217.987 65.9861 317.184 158.486 347.05Z" fill="url(#paint0_linear_160_515)"/>
<path d="M531.358 91.9779C553.007 -2.78262 493.738 -97.1515 398.978 -118.801C304.217 -140.45 209.849 -81.1813 188.199 13.5793C166.55 108.34 225.819 202.708 320.579 224.358C415.34 246.007 509.708 186.738 531.358 91.9779Z" fill="url(#paint1_linear_160_515)"/>
</g>
<defs>
<linearGradient id="paint0_linear_160_515" x1="158.488" y1="347.044" x2="266.639" y2="12.0777" gradientUnits="userSpaceOnUse">
<stop stop-color="#40A4FF"/>
<stop offset="1" stop-color="#001D97"/>
</linearGradient>
<linearGradient id="paint1_linear_160_515" x1="531.352" y1="91.9766" x2="188.2" y2="13.5794" gradientUnits="userSpaceOnUse">
<stop stop-color="#40A4FF"/>
<stop offset="1" stop-color="#001D97"/>
</linearGradient>
<clipPath id="clip0_160_515">
<rect width="355" height="362" fill="white"/>
</clipPath>
</defs>
</svg>
