<svg width="541" height="129" viewBox="0 0 541 129" fill="none" xmlns="http://www.w3.org/2000/svg">
<path d="M476.5 129C512.122 129 541 100.122 541 64.5C541 28.8776 512.122 0 476.5 0C440.878 0 412 28.8776 412 64.5C412 100.122 440.878 129 476.5 129Z" fill="url(#paint0_linear_160_444)"/>
<path d="M459.061 72.0607C459.646 71.4749 459.646 70.5251 459.061 69.9393L449.515 60.3934C448.929 59.8076 447.979 59.8076 447.393 60.3934C446.808 60.9792 446.808 61.9289 447.393 62.5147L455.879 71L447.393 79.4853C446.808 80.0711 446.808 81.0208 447.393 81.6066C447.979 82.1924 448.929 82.1924 449.515 81.6066L459.061 72.0607ZM0 72.5H458V69.5H0V72.5Z" fill="white"/>
<defs>
<linearGradient id="paint0_linear_160_444" x1="436.5" y1="178" x2="494" y2="40.5" gradientUnits="userSpaceOnUse">
<stop stop-color="#40A4FF"/>
<stop offset="1" stop-color="#001D97"/>
</linearGradient>
</defs>
</svg>
